<?xml version="1.0" encoding="utf-8"?>
<!-- Generator: Adobe Illustrator 23.0.3, SVG Export Plug-In . SVG Version: 6.00 Build 0)  -->
<svg version="1.1" id="Capa_1" xmlns="http://www.w3.org/2000/svg" xmlns:xlink="http://www.w3.org/1999/xlink" x="0px" y="0px"
	 viewBox="0 0 343 303" style="enable-background:new 0 0 343 303;" xml:space="preserve">
<style type="text/css">
	.st0{fill:#94C9F1;}
	.st1{fill:#6385E9;}
</style>
<g>
	<path class="st0" d="M31.7,12.3c7.2,2,13.9,5.6,21.1,7.8c43.4,17.4,87.1,34.2,130.5,51.4c5.9,2.6,12.3,4.3,18,7.4
		c0,6.2-0.3,12.5-0.1,18.7c0.1,11.4-0.9,22.8-0.7,34.2c-0.3,23.6-0.6,47.3-0.8,70.9c-0.8,14-0.4,28.1-0.8,42.1
		c-0.1,1.8-0.1,3.8-1.8,4.8c-5.4,3.9-11,7.5-16.5,11.2c0.1,0.4,0.4,1.1,0.5,1.5c-1.6-0.1-3.2,0.1-4.8,0.2c0-6.6,0.4-13.2,0.2-19.7
		c-3.1-2-7-1.9-10.5-2.9c-45.7-11.6-91.6-22.6-137.4-34.1c-0.1-17.7,0.3-35.4,0.4-53.1c1.1-20,0.6-40,1-60c1-16.3,0.5-32.7,0.9-49
		C30.7,33.3,31.9,22.8,31.7,12.3 M78.3,71.1c-10.4,6.1-17.5,17.2-19.8,29c-0.7,6.6-0.4,13.3-0.3,19.9c1.2,14.3,8.4,27.2,16.3,38.9
		c-2.8,5-5.9,9.9-8.5,15c-2.1,4.1,2.4,9.3,6.8,8.4c6.7-0.9,13.2-2.8,19.8-3.9c3.8-0.7,6.7,2.5,9.9,3.9c9.4,4.9,19.9,8.5,30.6,8.2
		c14.4,0.4,29.1-6.6,37-18.8c6.5-9.5,8.5-21.5,7.7-32.9c-1.5-17.1-9.3-33.3-20.5-46.2c-11.1-12.8-25.9-22.7-42.6-26.5
		C102.5,63.5,89.1,64.6,78.3,71.1z"/>
	<path class="st0" d="M76.2,85c7.1-7.6,17.5-12,27.9-11.6c11.9-0.5,23.3,4,33.2,10.3c17.4,11.7,30.3,30.6,33.2,51.6
		c0.8,7.6,0.4,15.4-2.4,22.6c-4.2,11.6-14.5,20.9-26.6,23.5c-10.8,2.2-22.1,0.8-32.1-3.9c-4.8-1.9-8.9-5.3-13.8-7.1
		c-5.9-1.4-11.8,1.6-17.7,1.8c1.3-3.3,3.3-6.3,4.6-9.6c1.1-3.4-0.9-6.8-2.8-9.4c-9-12.1-14.6-27.1-13.8-42.2
		C66.5,101.5,69.7,92,76.2,85 M117.5,96.3c-6.1,4.4-1.8,13.6,3.8,16.3c3.1,1.6,7.8,1.7,9.8-1.7C134.9,103.2,125.7,92.6,117.5,96.3
		 M105.5,114.9c0.4,4.3,8.1,3.2,7.8,8.1c-1,6.7-3,13.2-4.2,19.9c-0.8,4.6-2.8,9.8,0.1,14.1c3.5,5.1,10,7.5,16,8.2
		c4,0.4,9.9-1.1,10-6c-3.6-0.1-8.9,1.9-10.8-2.5c-0.5-4,1-7.9,1.8-11.7c1.4-6.3,3-12.5,4.3-18.8c0.8-2.8-0.9-5.9-3.7-6.9
		c-5.8-2.1-11.7-3.6-17.6-5.5C107.8,113.4,105.3,112.6,105.5,114.9z"/>
</g>
<g>
	<path class="st1" d="M201.2,97.7c6.2,1.7,12.1,4.4,18.3,6.2c0.4,55.5,0.1,111.1,0.1,166.6c-5.4-0.5-10.6-2-15.9-3
		c-7.5-1.9-15.2-2.8-22.6-5c-0.1-0.4-0.4-1.1-0.5-1.5c5.5-3.7,11.1-7.3,16.5-11.2c1.7-1,1.8-3,1.8-4.8c0.4-14,0-28.1,0.8-42.1
		c0.2-23.7,0.5-47.3,0.8-70.9C200.2,120.5,201.3,109.1,201.2,97.7z"/>
	<path class="st1" d="M231.7,108.3c11.7,4.2,23.4,8.4,35.1,12.7c1.8,0.4,2.6,2.2,2.4,3.9c0,50.7,0,101.4,0,152.1
		c0.1,1.5-0.4,2.9-0.9,4.3c-11.6-2.7-23.3-4.8-34.9-7.5c-2-0.1-2.5-2.2-2.3-3.8c0-50.7,0-101.3,0-152
		C231.1,114.7,230.7,111.4,231.7,108.3z"/>
	<path class="st1" d="M279.8,125.5c11.5,4.2,23,8.3,34.5,12.4c0.1,50.7,0.1,101.3,0,152c-0.3,0.2-0.9,0.7-1.3,0.9
		c-7.4-1.1-14.6-3.4-21.9-4.7c-3.8-0.8-7.8-1.5-11.4-2.9C279.9,230.6,279.5,178,279.8,125.5z"/>
</g>
</svg>
