<?xml version="1.0" encoding="UTF-8" ?>
<!DOCTYPE svg PUBLIC "-//W3C//DTD SVG 1.1//EN" "http://www.w3.org/Graphics/SVG/1.1/DTD/svg11.dtd">
<svg width="905pt" height="556pt" viewBox="0 0 905 556" version="1.1" xmlns="http://www.w3.org/2000/svg">
<g id="#94c9f1ff">
<path fill="#94c9f1" opacity="1.00" d=" M 318.59 31.37 C 325.83 33.35 332.49 37.01 339.68 39.21 C 383.09 56.58 426.73 73.42 470.21 90.65 C 476.14 93.29 482.50 94.94 488.20 98.07 C 488.18 104.31 487.89 110.54 488.08 116.78 C 488.18 128.19 487.14 139.57 487.35 150.99 C 487.05 174.64 486.80 198.29 486.56 221.94 C 485.77 235.97 486.18 250.03 485.76 264.08 C 485.69 265.84 485.64 267.87 483.92 268.88 C 478.53 272.79 472.93 276.41 467.39 280.12 C 467.53 280.49 467.79 281.23 467.93 281.60 C 466.33 281.55 464.74 281.71 463.16 281.84 C 463.21 275.26 463.61 268.68 463.38 262.10 C 460.33 260.13 456.34 260.22 452.88 259.22 C 407.15 247.60 361.26 236.65 315.52 225.09 C 315.44 207.39 315.81 189.70 315.91 172.00 C 317.00 152.03 316.52 132.00 316.92 111.99 C 317.97 95.70 317.46 79.34 317.83 63.01 C 317.66 52.44 318.78 41.93 318.59 31.37 M 365.18 90.19 C 354.75 96.34 347.68 107.39 345.41 119.17 C 344.72 125.78 344.99 132.45 345.15 139.07 C 346.31 153.42 353.56 166.29 361.43 177.99 C 358.65 183.03 355.54 187.89 352.97 193.04 C 350.90 197.17 355.41 202.29 359.80 201.42 C 366.45 200.47 372.95 198.66 379.58 197.55 C 383.36 196.83 386.26 200.02 389.43 201.50 C 398.82 206.41 409.29 209.97 420.00 209.73 C 434.37 210.12 449.07 203.10 457.00 190.96 C 463.55 181.44 465.50 169.42 464.67 158.08 C 463.18 140.95 455.34 124.80 444.18 111.89 C 433.04 99.14 418.25 89.15 401.60 85.42 C 389.45 82.64 376.01 83.67 365.18 90.19 Z" />
<path fill="#94c9f1" opacity="1.00" d=" M 363.13 104.13 C 370.23 96.57 380.61 92.16 391.01 92.52 C 402.88 92.01 414.34 96.51 424.17 102.84 C 441.62 114.53 454.46 133.48 457.41 154.42 C 458.17 162.00 457.86 169.86 455.05 177.03 C 450.87 188.63 440.56 197.89 428.47 200.50 C 417.72 202.68 406.32 201.32 396.41 196.61 C 391.58 194.69 387.51 191.27 382.65 189.46 C 376.71 188.04 370.90 191.02 364.98 191.24 C 366.30 187.92 368.32 184.94 369.59 181.61 C 370.74 178.20 368.72 174.85 366.79 172.18 C 357.84 160.09 352.24 145.11 353.00 129.94 C 353.41 120.55 356.66 111.08 363.13 104.13 M 404.46 115.41 C 398.31 119.78 402.65 128.97 408.25 131.72 C 411.31 133.34 416.07 133.40 418.01 130.05 C 421.86 122.30 412.60 111.72 404.46 115.41 M 392.38 133.98 C 392.83 138.25 400.46 137.21 400.17 142.04 C 399.20 148.74 397.15 155.24 395.93 161.90 C 395.14 166.49 393.13 171.68 395.99 175.97 C 399.53 181.11 405.99 183.47 411.97 184.18 C 416.01 184.58 421.84 183.12 422.02 178.18 C 418.38 178.12 413.10 180.09 411.20 175.69 C 410.68 171.71 412.17 167.84 412.97 164.00 C 414.35 157.73 415.93 151.51 417.31 145.24 C 418.09 142.44 416.41 139.30 413.65 138.39 C 407.88 136.30 401.93 134.76 396.09 132.88 C 394.76 132.48 392.26 131.71 392.38 133.98 Z" />
</g>
<g id="#ffffffff">
<path fill="#ffffff" opacity="1.00" d=" M 365.18 90.19 C 376.01 83.67 389.45 82.64 401.60 85.42 C 418.25 89.15 433.04 99.14 444.18 111.89 C 455.34 124.80 463.18 140.95 464.67 158.08 C 465.50 169.42 463.55 181.44 457.00 190.96 C 449.07 203.10 434.37 210.12 420.00 209.73 C 409.29 209.97 398.82 206.41 389.43 201.50 C 386.26 200.02 383.36 196.83 379.58 197.55 C 372.95 198.66 366.45 200.47 359.80 201.42 C 355.41 202.29 350.90 197.17 352.97 193.04 C 355.54 187.89 358.65 183.03 361.43 177.99 C 353.56 166.29 346.31 153.42 345.15 139.07 C 344.99 132.45 344.72 125.78 345.41 119.17 C 347.68 107.39 354.75 96.34 365.18 90.19 M 363.13 104.13 C 356.66 111.08 353.41 120.55 353.00 129.94 C 352.24 145.11 357.84 160.09 366.79 172.18 C 368.72 174.85 370.74 178.20 369.59 181.61 C 368.32 184.94 366.30 187.92 364.98 191.24 C 370.90 191.02 376.71 188.04 382.65 189.46 C 387.51 191.27 391.58 194.69 396.41 196.61 C 406.32 201.32 417.72 202.68 428.47 200.50 C 440.56 197.89 450.87 188.63 455.05 177.03 C 457.86 169.86 458.17 162.00 457.41 154.42 C 454.46 133.48 441.62 114.53 424.17 102.84 C 414.34 96.51 402.88 92.01 391.01 92.52 C 380.61 92.16 370.23 96.57 363.13 104.13 Z" />
<path fill="#ffffff" opacity="1.00" d=" M 404.46 115.41 C 412.60 111.72 421.86 122.30 418.01 130.05 C 416.07 133.40 411.31 133.34 408.25 131.72 C 402.65 128.97 398.31 119.78 404.46 115.41 Z" />
<path fill="#ffffff" opacity="1.00" d=" M 392.38 133.98 C 392.26 131.71 394.76 132.48 396.09 132.88 C 401.93 134.76 407.88 136.30 413.65 138.39 C 416.41 139.30 418.09 142.44 417.31 145.24 C 415.93 151.51 414.35 157.73 412.97 164.00 C 412.17 167.84 410.68 171.71 411.20 175.69 C 413.10 180.09 418.38 178.12 422.02 178.18 C 421.84 183.12 416.01 184.58 411.97 184.18 C 405.99 183.47 399.53 181.11 395.99 175.97 C 393.13 171.68 395.14 166.49 395.93 161.90 C 397.15 155.24 399.20 148.74 400.17 142.04 C 400.46 137.21 392.83 138.25 392.38 133.98 Z" />
<path fill="#ffffff" opacity="1.00" d=" M 189.68 316.66 C 200.90 312.54 213.45 315.80 223.02 322.43 C 223.07 327.37 221.71 332.17 220.87 337.02 C 215.84 334.44 210.08 331.97 204.35 333.28 C 200.36 334.42 199.06 338.60 198.09 342.16 C 197.85 345.77 198.06 349.39 198.00 353.00 C 204.73 353.00 211.46 352.99 218.19 353.00 C 216.53 356.05 217.18 359.49 216.87 362.80 C 215.90 365.08 215.93 367.56 215.96 370.00 C 209.97 370.00 203.99 370.00 198.00 370.00 C 198.00 391.33 198.00 412.67 198.00 434.00 C 190.67 434.00 183.33 434.00 176.00 434.00 C 176.00 412.67 176.00 391.33 176.00 370.00 C 172.66 369.99 169.33 370.00 166.00 370.00 C 166.00 364.33 166.00 358.67 166.00 353.00 C 169.33 352.99 172.67 353.00 176.00 353.00 C 176.26 348.60 175.27 344.01 176.86 339.79 C 176.60 330.66 180.69 320.26 189.68 316.66 Z" />
<path fill="#ffffff" opacity="1.00" d=" M 644.35 324.32 C 649.04 323.60 654.51 323.44 658.43 326.60 C 660.77 328.27 662.59 330.99 662.05 334.00 C 662.77 338.95 657.99 342.64 653.64 343.68 C 648.82 344.59 643.66 344.14 639.31 341.72 C 635.13 338.76 635.00 332.42 637.28 328.27 C 639.34 326.50 641.69 324.99 644.35 324.32 Z" />
<path fill="#ffffff" opacity="1.00" d=" M 36.87 326.02 C 45.25 325.97 53.62 326.01 62.00 326.00 C 62.00 362.00 62.00 398.00 62.00 434.00 C 54.33 434.00 46.67 434.00 39.00 434.00 C 38.97 404.02 39.05 374.04 38.97 344.07 C 37.92 340.80 37.85 337.38 38.01 333.96 C 38.30 331.22 36.79 328.75 36.87 326.02 Z" />
<path fill="#ffffff" opacity="1.00" d=" M 382.97 326.01 C 391.50 325.99 400.04 326.00 408.58 326.00 C 415.27 337.04 422.25 347.92 429.21 358.80 C 436.97 371.25 445.37 383.34 451.95 396.48 C 452.07 372.99 451.97 349.49 452.00 326.00 C 459.67 326.00 467.33 326.00 475.00 326.00 C 475.00 362.00 475.00 398.00 475.00 434.00 C 467.14 434.00 459.28 434.00 451.42 434.00 C 443.94 422.04 436.42 410.08 428.79 398.20 C 422.15 386.81 414.37 376.10 408.05 364.52 C 407.93 387.68 408.03 410.84 408.00 434.00 C 400.33 434.00 392.67 434.00 385.00 434.00 C 385.00 404.66 385.00 375.33 385.00 345.99 C 385.11 344.52 384.53 343.17 384.13 341.80 C 383.61 338.42 384.63 334.85 383.37 331.60 C 382.76 329.80 383.05 327.86 382.97 326.01 Z" />
<path fill="#ffffff" opacity="1.00" d=" M 589.00 330.00 C 596.33 330.00 603.66 330.00 611.00 330.00 C 611.00 337.67 611.00 345.33 611.00 353.00 C 616.69 353.01 622.38 352.98 628.07 353.01 C 627.95 354.53 628.14 356.12 627.63 357.59 C 626.51 360.13 627.41 362.99 626.63 365.60 C 626.11 367.01 625.98 368.51 625.84 370.00 C 620.89 370.00 615.94 370.00 611.00 370.00 C 611.10 380.59 610.81 391.21 611.13 401.79 C 612.68 405.09 611.30 408.88 612.81 412.19 C 613.17 414.27 615.10 415.45 616.34 417.01 C 621.49 417.42 626.43 415.26 630.93 412.97 C 632.92 416.40 633.75 420.37 635.95 423.72 C 628.31 431.30 617.32 436.81 606.37 434.66 C 602.45 433.33 597.78 432.29 595.57 428.43 C 592.84 424.09 590.05 419.36 589.92 414.10 C 589.82 412.36 588.84 410.78 589.00 409.00 C 588.99 396.00 589.00 383.00 589.00 370.00 C 586.33 370.00 583.66 370.00 581.00 370.00 C 581.00 364.33 581.00 358.67 581.00 353.00 C 583.66 353.00 586.33 353.00 589.00 353.00 C 589.00 345.33 589.00 337.67 589.00 330.00 Z" />
<path fill="#ffffff" opacity="1.00" d=" M 648.06 352.03 C 652.08 352.06 656.12 352.17 659.96 350.78 C 660.04 366.52 659.99 382.26 659.99 398.00 C 660.06 400.46 659.66 403.05 660.62 405.40 C 661.46 407.63 660.40 410.24 661.62 412.36 C 662.42 414.22 664.04 415.50 665.33 417.00 C 670.20 417.21 675.49 415.88 679.17 412.60 C 682.27 415.61 682.42 420.34 684.98 423.76 C 678.10 429.88 669.58 435.51 659.98 435.04 C 653.25 435.34 646.66 431.63 642.98 426.04 C 638.97 420.86 639.53 413.95 638.04 407.93 C 637.94 395.29 638.03 382.64 638.00 370.00 C 635.33 370.00 632.66 370.00 630.00 370.00 C 630.00 364.33 630.00 358.67 630.00 353.00 C 636.02 352.70 642.23 353.81 648.06 352.03 Z" />
<path fill="#ffffff" opacity="1.00" d=" M 120.37 352.34 C 127.18 351.23 134.45 352.19 140.62 355.36 C 148.39 359.50 151.08 368.85 152.00 377.00 C 152.12 385.93 151.79 394.87 152.14 403.79 C 153.76 407.59 152.09 412.61 155.28 415.71 C 159.79 418.86 165.32 416.08 168.91 412.84 C 170.71 416.80 171.87 421.05 174.00 424.86 C 171.02 426.09 169.10 428.75 166.43 430.42 C 158.57 436.33 146.97 436.66 138.78 431.24 C 132.09 425.91 131.17 416.84 130.00 409.01 C 129.96 400.35 130.06 391.70 129.98 383.05 C 129.02 378.88 128.02 374.30 124.22 371.75 C 116.69 367.31 107.51 371.49 102.00 377.31 C 101.99 396.21 102.00 415.10 102.00 434.00 C 94.67 434.00 87.33 434.00 80.00 434.00 C 80.00 407.67 80.00 381.34 80.00 355.01 C 83.09 355.23 86.12 354.89 89.06 354.03 C 93.46 354.35 97.69 353.60 101.98 352.87 C 102.02 355.98 101.99 359.09 102.00 362.20 C 107.55 357.93 113.48 354.01 120.37 352.34 Z" />
<path fill="#ffffff" opacity="1.00" d=" M 255.39 352.37 C 263.89 351.30 272.54 352.06 280.83 354.15 C 288.01 356.45 294.09 362.04 297.01 368.98 C 299.56 373.26 299.79 378.35 300.96 383.07 C 300.70 392.25 302.02 401.63 299.61 410.60 C 297.81 419.80 291.74 428.31 282.92 431.92 C 278.68 433.32 274.26 434.02 269.92 434.96 C 264.24 434.85 258.43 435.65 252.90 434.09 C 242.63 433.74 233.75 426.63 229.35 417.63 C 227.36 411.97 225.65 406.06 225.99 400.00 C 226.22 390.74 224.96 381.21 228.34 372.36 C 229.90 366.11 234.68 361.44 239.34 357.33 C 244.27 354.49 249.85 353.16 255.39 352.37 M 259.36 370.32 C 257.04 371.18 254.30 371.65 252.75 373.76 C 250.38 377.50 248.65 381.67 248.04 386.07 C 247.95 390.69 247.96 395.32 248.04 399.94 C 248.89 404.34 250.06 408.76 252.31 412.69 C 257.74 418.18 266.98 418.41 273.25 414.27 C 277.03 410.44 277.70 404.80 278.84 399.79 C 279.40 392.58 279.14 385.22 276.66 378.35 C 275.58 375.36 272.90 373.39 270.65 371.29 C 267.10 369.81 263.09 369.55 259.36 370.32 Z" />
<path fill="#ffffff" opacity="1.00" d=" M 344.17 356.17 C 351.80 351.10 361.73 350.74 370.09 354.23 C 370.23 357.49 368.88 360.52 368.80 363.76 C 367.65 366.40 368.61 369.54 366.98 371.99 C 363.12 370.55 359.22 368.57 354.99 368.96 C 345.91 369.21 336.44 375.67 335.01 385.05 C 334.97 401.36 335.01 417.68 335.00 434.00 C 327.67 434.00 320.33 434.00 313.00 434.00 C 313.00 407.67 313.00 381.34 313.00 355.01 C 317.47 355.67 321.57 353.51 326.02 354.00 C 329.10 354.25 331.88 352.53 334.99 352.93 C 335.02 356.73 334.97 360.54 335.01 364.35 C 338.13 361.69 340.59 358.26 344.17 356.17 Z" />
<path fill="#ffffff" opacity="1.00" d=" M 503.35 356.33 C 509.82 352.65 517.43 351.27 524.81 352.14 C 530.72 353.47 536.64 355.98 541.00 360.29 C 541.01 357.84 540.99 355.38 541.01 352.93 C 542.53 353.04 544.12 352.84 545.60 353.37 C 549.04 354.80 552.95 353.19 556.40 354.63 C 558.52 355.29 560.80 354.92 563.00 355.01 C 562.99 371.69 563.03 388.36 562.98 405.03 C 562.68 409.37 564.21 413.87 567.27 417.00 C 572.85 417.86 577.86 415.17 582.65 412.73 C 583.84 416.35 585.16 419.95 587.24 423.17 C 579.67 432.20 566.76 437.58 555.17 433.85 C 549.24 432.26 545.07 427.17 542.76 421.71 C 538.91 427.90 532.90 433.09 525.63 434.66 C 518.49 435.50 510.70 435.51 504.31 431.69 C 496.79 428.08 494.00 419.52 491.98 412.03 C 490.91 409.03 491.20 405.79 490.15 402.79 C 489.75 390.48 489.07 377.44 495.32 366.33 C 496.83 362.18 500.07 359.12 503.35 356.33 M 521.29 371.30 C 517.72 372.58 516.06 376.27 514.33 379.35 C 510.97 388.71 510.95 399.29 514.34 408.64 C 515.40 411.63 518.08 413.59 520.33 415.68 C 524.40 418.43 529.65 416.74 533.67 414.70 C 536.36 412.03 539.84 409.67 540.97 405.88 C 541.05 396.37 540.99 386.86 540.98 377.36 C 539.15 375.72 537.54 373.87 535.67 372.30 C 531.34 370.04 525.74 368.66 521.29 371.30 Z" />
<path fill="#ffffff" opacity="1.00" d=" M 713.39 352.37 C 719.55 351.80 726.03 351.45 732.10 352.91 C 738.46 353.41 745.01 355.80 749.27 360.73 C 755.76 366.62 757.85 375.66 759.00 384.00 C 758.61 392.30 759.98 400.79 757.94 408.93 C 756.47 418.75 750.30 428.10 740.92 431.92 C 729.59 435.75 717.31 436.04 705.76 433.22 C 697.75 431.54 691.53 425.27 687.67 418.32 C 685.41 412.50 683.69 406.30 683.99 400.00 C 684.25 391.00 682.97 381.75 686.10 373.10 C 687.31 368.04 690.44 363.70 694.23 360.23 C 699.00 354.79 706.65 353.52 713.39 352.37 M 717.36 370.32 C 715.04 371.18 712.30 371.65 710.75 373.76 C 708.37 377.50 706.65 381.67 706.04 386.07 C 705.95 390.69 705.95 395.31 706.04 399.93 C 706.89 404.33 708.06 408.76 710.31 412.69 C 715.74 418.18 724.98 418.41 731.26 414.27 C 735.03 410.44 735.69 404.80 736.84 399.79 C 737.40 392.58 737.13 385.21 734.66 378.35 C 733.58 375.36 730.89 373.39 728.65 371.29 C 725.10 369.81 721.09 369.55 717.36 370.32 Z" />
<path fill="#ffffff" opacity="1.00" d=" M 808.60 353.60 C 816.09 350.53 824.75 351.81 831.99 355.00 C 840.17 358.99 843.08 368.60 844.00 376.99 C 844.11 385.92 843.79 394.87 844.14 403.79 C 845.76 407.59 844.08 412.62 847.28 415.71 C 851.79 418.86 857.32 416.08 860.91 412.84 C 862.70 416.80 863.86 421.05 866.00 424.85 C 863.02 426.09 861.10 428.75 858.43 430.42 C 850.56 436.33 838.96 436.66 830.78 431.24 C 824.08 425.91 823.17 416.84 822.00 409.00 C 821.96 400.35 822.05 391.70 821.98 383.04 C 821.02 378.88 820.02 374.30 816.22 371.75 C 808.69 367.31 799.51 371.49 794.00 377.31 C 793.99 396.21 794.00 415.10 794.00 434.00 C 786.66 434.00 779.33 434.00 772.00 434.00 C 772.00 407.67 772.00 381.34 772.00 355.01 C 775.08 355.23 778.12 354.89 781.07 354.03 C 785.46 354.35 789.69 353.60 793.98 352.87 C 794.01 355.98 793.98 359.09 794.00 362.20 C 798.60 358.94 803.10 355.22 808.60 353.60 Z" />
<path fill="#ffffff" opacity="1.00" d=" M 397.37 462.27 C 400.53 461.29 405.89 462.13 406.23 466.15 C 403.83 464.64 401.20 463.54 398.30 463.95 C 395.29 466.71 395.15 471.15 394.92 474.98 C 397.95 475.01 400.97 474.99 404.00 475.00 C 404.00 475.50 404.00 476.50 404.00 477.00 C 401.00 477.00 398.00 476.99 395.00 477.00 C 395.00 484.67 395.00 492.34 395.00 500.01 C 394.50 500.00 393.50 500.00 393.00 500.00 C 393.00 492.34 392.99 484.68 393.00 477.02 C 391.66 477.00 390.33 476.99 389.00 476.98 C 389.00 476.49 389.00 475.51 389.00 475.02 C 390.33 475.00 391.66 474.99 393.01 474.98 C 393.08 470.64 392.06 463.89 397.37 462.27 Z" />
<path fill="#ffffff" opacity="1.00" d=" M 49.00 465.00 C 49.50 465.00 50.50 465.00 51.00 465.00 C 51.10 473.26 50.80 481.54 51.13 489.79 C 52.24 492.29 51.90 495.04 52.11 497.70 C 54.22 500.71 57.85 498.09 60.23 496.85 C 60.02 500.58 55.39 501.34 52.39 501.01 C 51.64 500.20 50.87 499.42 50.08 498.66 C 50.05 497.92 49.98 496.43 49.94 495.69 C 47.37 497.99 44.89 501.46 41.00 501.06 C 37.58 501.32 34.44 498.85 33.30 495.71 C 31.76 493.35 32.11 490.43 31.15 487.87 C 31.77 484.24 32.21 480.47 34.31 477.32 C 38.11 473.51 44.65 472.60 49.00 476.09 C 49.00 472.39 49.00 468.69 49.00 465.00 M 37.27 477.28 C 35.65 478.84 34.94 481.11 34.04 483.13 C 33.76 488.69 33.33 495.31 38.36 499.02 C 42.87 499.97 46.16 496.59 48.98 493.65 C 49.03 488.48 48.98 483.31 49.01 478.14 C 45.70 475.56 40.88 475.02 37.27 477.28 Z" />
<path fill="#ffffff" opacity="1.00" d=" M 166.00 465.00 C 166.50 465.00 167.50 465.00 168.00 465.00 C 168.00 469.03 168.00 473.07 168.00 477.11 C 171.55 474.97 176.02 472.35 180.05 474.96 C 184.97 477.38 185.28 483.21 186.02 487.93 C 185.45 490.31 185.06 492.78 184.02 495.02 C 182.04 500.94 173.53 502.93 168.69 499.27 C 167.81 499.60 166.92 499.91 166.02 500.20 C 165.97 488.47 166.01 476.73 166.00 465.00 M 168.01 480.33 C 167.97 485.86 168.04 491.39 167.97 496.93 C 171.67 498.89 176.76 500.41 180.25 497.23 C 181.81 494.79 183.44 492.06 183.03 489.03 C 183.14 484.63 183.29 478.49 178.35 476.61 C 174.46 474.41 170.57 477.58 168.01 480.33 Z" />
<path fill="#ffffff" opacity="1.00" d=" M 296.00 465.00 C 296.50 465.00 297.50 465.00 298.00 465.00 C 298.10 473.26 297.80 481.54 298.13 489.79 C 299.24 492.29 298.90 495.04 299.12 497.70 C 301.22 500.71 304.85 498.09 307.23 496.85 C 307.02 500.58 302.39 501.34 299.40 501.01 C 298.64 500.20 297.86 499.42 297.08 498.66 C 297.05 497.92 296.98 496.44 296.95 495.69 C 294.08 498.65 290.71 502.11 286.15 500.99 C 280.04 499.44 278.89 492.39 278.15 487.13 C 279.02 483.77 279.24 480.25 281.32 477.31 C 285.11 473.52 291.65 472.60 296.00 476.10 C 296.00 472.39 296.00 468.69 296.00 465.00 M 284.27 477.28 C 282.64 478.83 281.94 481.11 281.04 483.13 C 280.76 488.69 280.33 495.31 285.35 499.02 C 289.86 499.98 293.15 496.59 295.98 493.65 C 296.03 488.48 295.98 483.31 296.01 478.14 C 292.70 475.56 287.88 475.02 284.27 477.28 Z" />
<path fill="#ffffff" opacity="1.00" d=" M 651.00 465.00 C 651.50 465.00 652.50 465.00 653.00 465.00 C 653.10 473.26 652.80 481.54 653.13 489.79 C 654.24 492.30 653.89 495.04 654.11 497.70 C 656.21 500.71 659.85 498.09 662.23 496.85 C 662.02 500.58 657.39 501.34 654.39 501.01 C 653.63 500.20 652.86 499.42 652.08 498.66 C 652.05 497.91 651.98 496.43 651.94 495.69 C 649.09 498.65 645.71 502.11 641.15 500.99 C 635.04 499.44 633.89 492.39 633.15 487.13 C 634.02 483.77 634.24 480.25 636.31 477.32 C 640.10 473.51 646.65 472.60 651.00 476.10 C 651.00 472.39 650.99 468.69 651.00 465.00 M 639.27 477.28 C 637.64 478.84 636.93 481.11 636.04 483.14 C 635.75 488.69 635.33 495.30 640.35 499.01 C 644.86 499.98 648.15 496.59 650.98 493.65 C 651.03 488.48 650.97 483.31 651.01 478.14 C 647.70 475.56 642.88 475.02 639.27 477.28 Z" />
<path fill="#ffffff" opacity="1.00" d=" M 690.00 466.35 C 691.01 465.91 692.01 465.44 693.01 464.94 C 693.07 475.86 692.85 486.79 693.10 497.70 C 695.22 500.70 698.84 498.10 701.23 496.85 C 701.01 500.63 696.31 501.30 693.29 501.04 C 690.85 498.75 689.83 495.32 689.98 492.03 C 690.02 483.47 689.99 474.91 690.00 466.35 Z" />
<path fill="#ffffff" opacity="1.00" d=" M 837.00 465.00 C 837.50 465.00 838.50 465.00 839.00 465.00 C 839.10 473.26 838.80 481.54 839.13 489.79 C 840.24 492.29 839.89 495.04 840.11 497.70 C 842.21 500.71 845.85 498.09 848.23 496.85 C 848.02 500.58 843.39 501.34 840.39 501.01 C 839.63 500.20 838.86 499.42 838.08 498.65 C 838.05 497.91 837.98 496.43 837.95 495.69 C 835.09 498.65 831.71 502.11 827.15 500.99 C 821.04 499.44 819.89 492.39 819.15 487.13 C 820.02 483.77 820.24 480.25 822.32 477.31 C 826.11 473.52 832.65 472.60 837.00 476.10 C 837.00 472.39 836.99 468.69 837.00 465.00 M 825.27 477.28 C 823.64 478.83 822.94 481.11 822.04 483.13 C 821.75 488.69 821.33 495.30 826.35 499.01 C 830.86 499.98 834.16 496.59 836.98 493.65 C 837.02 488.48 836.97 483.31 837.01 478.14 C 833.70 475.56 828.88 475.02 825.27 477.28 Z" />
<path fill="#ffffff" opacity="1.00" d=" M 209.82 468.00 C 210.36 466.10 212.29 465.83 213.99 465.87 C 213.99 467.28 213.99 468.70 213.99 470.13 C 212.29 470.16 210.36 469.89 209.82 468.00 Z" />
<path fill="#ffffff" opacity="1.00" d=" M 346.83 468.00 C 347.34 466.08 349.31 465.84 350.99 465.87 C 350.99 467.29 350.99 468.71 350.99 470.13 C 349.31 470.14 347.32 469.91 346.83 468.00 Z" />
<path fill="#ffffff" opacity="1.00" d=" M 551.82 468.00 C 552.34 466.09 554.30 465.84 555.99 465.87 C 555.99 467.28 555.99 468.70 555.99 470.13 C 554.30 470.15 552.34 469.90 551.82 468.00 Z" />
<path fill="#ffffff" opacity="1.00" d=" M 577.35 466.00 C 578.06 466.00 579.47 466.00 580.18 466.00 C 578.36 467.72 577.80 471.21 574.86 471.23 C 575.74 469.51 576.62 467.79 577.35 466.00 Z" />
<path fill="#ffffff" opacity="1.00" d=" M 61.77 482.76 C 62.27 477.83 66.86 473.26 72.00 473.95 C 75.31 473.99 79.49 474.60 81.05 477.96 C 82.75 480.67 81.76 483.99 82.00 487.00 C 76.00 487.00 70.00 487.00 64.00 487.00 C 63.86 490.58 63.52 494.83 66.75 497.26 C 71.01 500.82 76.66 498.40 81.19 496.76 C 81.48 499.15 79.26 500.19 77.23 500.24 C 72.90 501.68 68.08 501.39 64.33 498.66 C 61.72 493.91 59.86 488.09 61.77 482.76 M 63.92 484.98 C 69.29 485.01 74.66 485.00 80.04 484.99 C 79.91 483.20 80.36 481.25 79.39 479.63 C 78.40 476.65 74.84 475.66 72.01 475.95 C 67.23 475.58 63.27 480.34 63.92 484.98 Z" />
<path fill="#ffffff" opacity="1.00" d=" M 87.00 477.26 C 91.13 472.97 97.80 473.45 103.00 475.25 C 103.00 475.94 103.01 477.31 103.01 478.00 C 98.67 475.72 93.02 474.74 88.98 478.16 C 88.99 479.67 88.99 481.19 89.00 482.71 C 91.33 485.54 95.14 485.62 98.40 486.61 C 102.55 487.21 105.69 491.90 103.99 495.92 C 102.47 499.16 98.69 501.58 95.00 501.05 C 91.80 501.34 88.94 499.70 85.99 498.75 C 85.99 498.01 86.00 496.54 86.00 495.80 C 90.26 499.89 97.98 500.52 102.00 495.72 C 102.01 494.24 102.01 492.76 102.00 491.29 C 98.46 487.20 92.40 488.77 88.20 485.74 C 86.66 483.15 86.95 480.14 87.00 477.26 Z" />
<path fill="#ffffff" opacity="1.00" d=" M 108.77 482.76 C 109.27 477.82 113.86 473.27 119.00 473.95 C 123.30 473.17 126.24 476.68 128.98 479.35 C 128.99 480.64 128.99 481.93 128.99 483.23 C 128.59 483.13 127.79 482.92 127.39 482.82 C 126.19 479.52 123.81 476.09 119.95 475.96 C 115.35 475.18 110.58 479.25 110.98 483.97 C 111.23 488.63 109.65 494.65 114.31 497.70 C 118.58 500.78 124.02 498.44 126.97 494.69 C 126.99 493.45 127.01 492.22 127.03 491.00 C 127.53 491.00 128.52 491.00 129.01 491.00 C 129.01 492.55 129.00 494.10 128.98 495.65 C 127.52 496.97 126.20 498.43 124.67 499.68 C 119.88 502.60 112.60 501.27 109.96 496.03 C 108.34 491.86 107.09 487.13 108.77 482.76 Z" />
<path fill="#ffffff" opacity="1.00" d=" M 191.10 475.36 C 191.57 474.93 192.51 474.07 192.99 473.64 C 193.00 475.19 193.00 476.74 193.00 478.30 C 195.87 474.68 200.53 473.52 204.98 473.98 C 204.99 474.74 205.01 476.26 205.03 477.03 C 200.64 474.12 194.57 477.68 193.04 482.19 C 192.91 488.12 193.05 494.06 193.00 500.00 C 192.50 500.00 191.50 500.00 191.00 500.01 C 191.08 491.79 190.85 483.57 191.10 475.36 Z" />
<path fill="#ffffff" opacity="1.00" d=" M 223.77 482.76 C 224.27 477.82 228.86 473.26 234.00 473.95 C 237.31 473.99 241.49 474.61 243.05 477.96 C 244.75 480.67 243.76 483.99 243.99 487.00 C 238.00 487.00 232.00 487.00 226.00 487.00 C 225.86 490.58 225.52 494.83 228.75 497.26 C 233.01 500.82 238.66 498.40 243.19 496.76 C 243.47 499.16 241.25 500.19 239.23 500.24 C 234.90 501.68 230.08 501.38 226.33 498.67 C 223.72 493.91 221.86 488.09 223.77 482.76 M 225.92 484.98 C 231.29 485.01 236.66 485.00 242.04 484.99 C 241.91 483.20 242.36 481.25 241.39 479.63 C 240.40 476.65 236.84 475.66 234.01 475.95 C 229.23 475.58 225.26 480.34 225.92 484.98 Z" />
<path fill="#ffffff" opacity="1.00" d=" M 251.11 475.37 C 251.56 474.94 252.46 474.06 252.91 473.63 C 252.98 474.57 253.10 476.45 253.16 477.38 C 255.76 476.21 257.88 473.51 261.00 473.95 C 266.06 473.10 270.90 477.89 270.02 482.96 C 270.47 488.39 268.48 494.54 272.23 499.17 C 274.07 499.30 275.46 498.39 276.49 496.91 C 277.00 497.48 277.54 498.04 278.10 498.58 C 277.24 499.35 276.41 500.15 275.60 500.98 C 274.15 500.99 272.72 500.99 271.28 501.01 C 269.95 499.48 268.53 497.88 268.04 495.87 C 267.86 490.96 268.14 486.04 267.96 481.13 C 267.46 479.11 266.04 477.52 264.73 475.97 C 260.35 475.55 255.78 476.74 253.01 480.33 C 252.99 486.89 253.01 493.44 253.00 500.00 C 252.50 500.00 251.50 500.00 251.00 500.00 C 251.08 491.79 250.84 483.57 251.11 475.37 Z" />
<path fill="#ffffff" opacity="1.00" d=" M 314.35 474.28 C 318.66 473.20 323.46 474.21 326.73 477.27 C 329.98 483.56 329.98 491.43 326.73 497.72 C 323.46 500.79 318.65 501.79 314.34 500.72 C 311.38 499.52 308.92 496.97 308.04 493.87 C 307.95 489.63 307.95 485.37 308.04 481.13 C 308.91 478.03 311.38 475.47 314.35 474.28 M 315.36 476.28 C 313.76 476.90 312.27 477.85 311.29 479.31 C 308.89 483.08 310.38 487.78 309.99 491.99 C 310.23 497.75 317.48 500.83 322.21 498.30 C 326.38 496.37 326.68 491.10 327.01 487.11 C 326.06 484.20 326.30 480.96 324.73 478.28 C 322.45 475.62 318.50 475.56 315.36 476.28 Z" />
<path fill="#ffffff" opacity="1.00" d=" M 363.11 475.37 C 363.56 474.93 364.46 474.06 364.91 473.63 C 364.98 474.57 365.10 476.44 365.16 477.38 C 367.76 476.21 369.88 473.51 373.01 473.95 C 378.06 473.10 382.90 477.90 382.02 482.97 C 382.47 488.40 380.47 494.57 384.24 499.19 C 386.13 499.24 387.55 498.18 388.80 496.88 C 389.11 497.33 389.73 498.22 390.05 498.66 C 389.20 499.40 388.38 500.17 387.59 500.97 C 386.15 500.99 384.71 501.00 383.28 501.01 C 381.95 499.48 380.54 497.88 380.04 495.88 C 379.86 490.96 380.14 486.04 379.96 481.13 C 379.45 479.11 378.03 477.52 376.73 475.97 C 372.35 475.55 367.78 476.74 365.01 480.33 C 364.99 486.89 365.01 493.44 365.00 500.00 C 364.50 500.00 363.50 500.00 363.00 500.00 C 363.08 491.79 362.84 483.57 363.11 475.37 Z" />
<path fill="#ffffff" opacity="1.00" d=" M 415.35 474.28 C 419.66 473.20 424.46 474.20 427.74 477.28 C 430.98 483.57 430.98 491.44 427.73 497.73 C 423.96 501.18 417.82 502.40 413.32 499.69 C 410.58 497.72 408.40 494.55 408.98 491.04 C 409.44 486.82 407.85 482.10 410.30 478.32 C 411.63 476.59 413.27 475.04 415.35 474.28 M 416.36 476.27 C 414.76 476.90 413.27 477.85 412.30 479.31 C 409.89 483.08 411.38 487.77 410.99 491.98 C 411.23 497.75 418.48 500.83 423.21 498.30 C 427.38 496.37 427.68 491.09 428.01 487.10 C 427.06 484.19 427.30 480.96 425.73 478.28 C 423.46 475.62 419.50 475.56 416.36 476.27 Z" />
<path fill="#ffffff" opacity="1.00" d=" M 436.10 475.36 C 436.57 474.93 437.51 474.07 437.99 473.64 C 438.00 475.19 438.00 476.74 438.00 478.30 C 440.87 474.68 445.53 473.52 449.98 473.98 C 449.99 474.74 450.01 476.27 450.02 477.03 C 445.64 474.11 439.56 477.68 438.04 482.19 C 437.91 488.12 438.05 494.07 438.00 500.01 C 437.50 500.00 436.50 500.00 436.00 500.00 C 436.07 491.79 435.85 483.57 436.10 475.36 Z" />
<path fill="#ffffff" opacity="1.00" d=" M 455.10 475.36 C 455.57 474.93 456.51 474.07 456.98 473.65 C 456.99 474.51 457.00 476.25 457.00 477.12 C 460.38 475.16 464.42 472.54 468.35 474.61 C 470.01 475.05 470.35 476.83 471.19 478.10 C 474.75 474.79 480.16 472.32 484.74 475.20 C 485.42 476.87 486.32 478.44 486.96 480.14 C 487.15 485.04 486.85 489.95 487.04 494.86 C 487.49 496.42 488.44 497.78 489.24 499.19 C 491.12 499.24 492.55 498.20 493.78 496.89 C 494.12 497.38 494.80 498.36 495.15 498.85 C 493.04 499.89 490.91 501.75 488.42 500.87 C 487.24 499.83 486.16 498.71 485.02 497.65 C 484.93 492.14 485.09 486.63 484.96 481.13 C 484.45 479.10 483.02 477.50 481.71 475.96 C 477.47 475.24 472.98 477.80 472.04 482.13 C 471.91 488.08 472.05 494.04 472.00 500.00 C 471.50 500.00 470.50 500.00 470.00 500.00 C 470.00 494.99 469.99 489.98 470.02 484.97 C 470.16 481.68 469.14 478.25 466.70 475.96 C 462.78 475.23 459.49 477.56 457.01 480.33 C 456.98 486.88 457.01 493.44 457.00 500.00 C 456.50 500.00 455.50 500.00 455.00 500.00 C 455.07 491.79 454.85 483.57 455.10 475.36 Z" />
<path fill="#ffffff" opacity="1.00" d=" M 499.75 476.76 C 503.80 473.56 509.78 472.68 513.98 476.10 C 514.01 475.49 514.06 474.26 514.09 473.64 C 514.54 474.07 515.44 474.93 515.89 475.36 C 516.28 480.16 515.70 484.99 516.13 489.79 C 517.24 492.30 516.90 495.04 517.11 497.70 C 518.77 500.25 522.30 498.99 523.77 496.87 C 524.12 497.37 524.80 498.35 525.15 498.85 C 522.82 500.37 520.23 501.47 517.39 501.01 C 516.63 500.20 515.86 499.42 515.08 498.66 C 515.05 497.92 514.98 496.43 514.94 495.69 C 512.37 498.00 509.89 501.46 506.00 501.06 C 502.58 501.32 499.43 498.85 498.30 495.71 C 496.76 493.35 497.10 490.43 496.15 487.87 C 496.79 484.03 497.27 479.95 499.75 476.76 M 502.27 477.28 C 500.64 478.83 499.94 481.11 499.04 483.13 C 498.76 488.69 498.33 495.31 503.35 499.02 C 507.87 499.98 511.16 496.59 513.98 493.65 C 514.03 488.48 513.98 483.31 514.01 478.14 C 510.70 475.56 505.88 475.02 502.27 477.28 Z" />
<path fill="#ffffff" opacity="1.00" d=" M 525.77 482.76 C 526.27 477.82 530.86 473.27 536.00 473.95 C 540.30 473.17 543.24 476.68 545.98 479.35 C 545.99 480.64 545.99 481.93 545.99 483.23 C 545.59 483.13 544.79 482.92 544.39 482.82 C 543.18 479.52 540.80 476.08 536.94 475.96 C 532.35 475.18 527.58 479.26 527.98 483.97 C 528.23 488.63 526.65 494.65 531.30 497.70 C 535.58 500.78 541.02 498.44 543.97 494.69 C 543.99 493.45 544.01 492.22 544.03 490.99 C 544.53 491.00 545.52 491.00 546.01 491.00 C 546.00 492.55 545.99 494.10 545.98 495.65 C 544.51 496.97 543.19 498.43 541.67 499.68 C 536.88 502.60 529.60 501.27 526.96 496.03 C 525.34 491.86 524.09 487.13 525.77 482.76 Z" />
<path fill="#ffffff" opacity="1.00" d=" M 572.34 474.28 C 576.65 473.20 581.46 474.20 584.73 477.27 C 587.98 483.57 587.98 491.43 584.73 497.73 C 580.96 501.18 574.82 502.40 570.32 499.69 C 567.58 497.72 565.40 494.55 565.98 491.04 C 566.44 486.82 564.85 482.09 567.30 478.32 C 568.63 476.59 570.27 475.05 572.34 474.28 M 573.36 476.27 C 571.76 476.90 570.27 477.85 569.30 479.30 C 566.89 483.08 568.38 487.77 567.99 491.98 C 568.23 497.75 575.48 500.83 580.21 498.30 C 584.38 496.37 584.67 491.10 585.01 487.11 C 584.06 484.20 584.30 480.96 582.73 478.28 C 580.45 475.62 576.50 475.56 573.36 476.27 Z" />
<path fill="#ffffff" opacity="1.00" d=" M 593.11 475.37 C 593.56 474.93 594.46 474.06 594.92 473.63 C 594.98 474.57 595.10 476.44 595.16 477.38 C 597.76 476.21 599.88 473.51 603.00 473.95 C 608.06 473.10 612.90 477.89 612.02 482.96 C 612.46 488.40 610.48 494.57 614.24 499.20 C 616.66 499.76 618.42 495.51 620.15 498.51 C 619.27 499.31 618.42 500.13 617.60 500.98 C 616.15 500.99 614.71 501.00 613.28 501.01 C 611.95 499.48 610.54 497.88 610.04 495.87 C 609.86 490.96 610.14 486.04 609.96 481.13 C 609.45 479.11 608.03 477.51 606.73 475.97 C 602.35 475.56 597.78 476.74 595.01 480.33 C 594.99 486.89 595.01 493.44 595.00 500.00 C 594.50 500.00 593.50 500.00 593.00 500.01 C 593.08 491.79 592.83 483.57 593.11 475.37 Z" />
<path fill="#ffffff" opacity="1.00" d=" M 665.29 478.31 C 667.13 475.95 669.79 473.65 673.00 473.95 C 676.59 473.89 681.28 474.29 683.05 477.97 C 684.75 480.67 683.76 483.99 683.99 487.00 C 677.99 487.00 672.00 487.00 666.00 487.00 C 665.85 490.58 665.52 494.83 668.74 497.26 C 673.00 500.82 678.66 498.40 683.20 496.76 C 683.47 499.15 681.25 500.19 679.23 500.24 C 674.90 501.68 670.08 501.39 666.33 498.67 C 662.57 492.56 661.89 484.73 665.29 478.31 M 665.92 484.98 C 671.29 485.01 676.66 485.00 682.04 484.99 C 681.91 483.20 682.36 481.25 681.39 479.63 C 680.39 476.65 676.84 475.66 674.01 475.95 C 669.22 475.58 665.26 480.34 665.92 484.98 Z" />
<path fill="#ffffff" opacity="1.00" d=" M 718.10 475.36 C 718.57 474.93 719.51 474.08 719.98 473.65 C 719.99 474.51 720.00 476.25 720.00 477.12 C 723.38 475.16 727.41 472.54 731.35 474.61 C 733.01 475.05 733.34 476.83 734.19 478.10 C 737.75 474.79 743.16 472.32 747.74 475.20 C 748.41 476.87 749.32 478.44 749.96 480.14 C 750.14 485.04 749.85 489.95 750.04 494.86 C 750.49 496.42 751.44 497.78 752.25 499.20 C 754.12 499.24 755.54 498.21 756.77 496.89 C 757.11 497.38 757.80 498.36 758.14 498.85 C 756.04 499.89 753.91 501.75 751.42 500.87 C 750.24 499.83 749.15 498.71 748.02 497.65 C 747.93 492.14 748.09 486.63 747.96 481.13 C 747.45 479.10 746.02 477.51 744.71 475.96 C 740.47 475.24 735.97 477.80 735.04 482.13 C 734.91 488.08 735.05 494.04 735.00 500.00 C 734.50 500.00 733.50 500.00 733.00 500.00 C 732.99 494.99 732.99 489.98 733.02 484.97 C 733.16 481.68 732.14 478.25 729.71 475.96 C 725.78 475.23 722.49 477.56 720.01 480.33 C 719.98 486.88 720.01 493.44 720.00 500.00 C 719.50 500.00 718.50 500.00 718.00 500.00 C 718.07 491.79 717.85 483.57 718.10 475.36 Z" />
<path fill="#ffffff" opacity="1.00" d=" M 791.11 475.37 C 791.56 474.94 792.46 474.06 792.91 473.63 C 792.98 474.57 793.10 476.44 793.16 477.38 C 795.76 476.20 797.88 473.51 801.01 473.95 C 806.06 473.10 810.90 477.90 810.02 482.97 C 810.47 488.40 808.47 494.57 812.24 499.19 C 814.13 499.24 815.55 498.18 816.80 496.88 C 817.11 497.33 817.74 498.21 818.05 498.66 C 817.19 499.40 816.38 500.17 815.59 500.97 C 814.14 500.99 812.71 501.00 811.28 501.01 C 809.95 499.48 808.54 497.88 808.04 495.88 C 807.85 490.96 808.14 486.04 807.96 481.13 C 807.44 479.11 806.03 477.51 804.73 475.97 C 800.35 475.56 795.79 476.74 793.01 480.33 C 792.98 486.88 793.01 493.44 793.00 500.00 C 792.50 500.00 791.50 500.00 791.00 500.00 C 791.08 491.79 790.83 483.57 791.11 475.37 Z" />
<path fill="#ffffff" opacity="1.00" d=" M 855.34 474.28 C 859.65 473.20 864.46 474.20 867.74 477.28 C 870.52 482.64 870.91 489.24 868.92 494.91 C 868.01 499.23 862.97 501.18 859.00 501.05 C 854.45 501.68 850.27 498.06 849.04 493.87 C 848.95 489.62 848.95 485.37 849.04 481.13 C 849.91 478.03 852.37 475.47 855.34 474.28 M 856.35 476.28 C 854.75 476.91 853.26 477.86 852.29 479.31 C 849.89 483.08 851.38 487.78 850.99 491.98 C 851.23 497.75 858.48 500.83 863.21 498.30 C 867.38 496.37 867.67 491.10 868.01 487.11 C 867.05 484.20 867.30 480.96 865.72 478.27 C 863.45 475.62 859.48 475.55 856.35 476.28 Z" />
<path fill="#ffffff" opacity="1.00" d=" M 134.00 475.00 C 134.75 475.00 136.25 475.00 137.00 475.00 C 137.02 481.87 136.97 488.75 137.02 495.63 C 138.19 496.70 139.31 497.82 140.39 498.99 C 144.76 499.74 148.85 497.61 152.00 494.75 C 152.00 488.16 152.00 481.58 152.00 475.00 C 152.50 475.00 153.50 475.00 154.00 475.00 C 154.03 481.65 153.96 488.30 154.01 494.95 C 153.98 496.43 154.88 497.72 155.29 499.11 C 157.88 499.35 160.10 498.02 162.29 496.85 C 162.11 498.61 160.75 499.76 159.68 501.05 C 156.35 501.52 152.72 500.35 151.75 496.81 C 148.85 500.58 143.10 502.23 138.79 500.30 C 135.01 498.75 134.79 494.38 134.04 490.93 C 133.91 485.62 134.05 480.31 134.00 475.00 Z" />
<path fill="#ffffff" opacity="1.00" d=" M 208.74 475.03 C 210.49 474.99 212.24 474.99 214.00 475.00 C 214.09 482.56 213.84 490.14 214.10 497.70 C 215.67 500.07 219.33 499.29 220.48 496.89 C 221.05 497.53 221.63 498.15 222.22 498.77 C 219.87 500.39 217.20 501.45 214.30 501.04 C 212.31 499.20 211.31 496.59 211.02 493.95 C 210.85 488.43 211.21 482.91 210.90 477.40 C 209.59 477.11 208.87 476.32 208.74 475.03 Z" />
<path fill="#ffffff" opacity="1.00" d=" M 345.74 475.03 C 347.49 474.99 349.24 474.99 351.00 475.00 C 351.09 482.56 350.83 490.14 351.10 497.70 C 352.32 499.70 355.46 499.48 356.81 497.72 C 357.73 496.38 358.60 498.14 359.26 498.74 C 356.90 500.38 354.22 501.46 351.29 501.04 C 349.31 499.19 348.31 496.60 348.02 493.96 C 347.85 488.44 348.21 482.91 347.90 477.40 C 346.59 477.11 345.87 476.32 345.74 475.03 Z" />
<path fill="#ffffff" opacity="1.00" d=" M 550.74 475.03 C 552.49 474.99 554.24 474.99 556.00 475.00 C 556.09 482.56 555.84 490.14 556.10 497.70 C 557.78 500.25 561.30 498.99 562.78 496.87 C 563.12 497.37 563.80 498.35 564.15 498.85 C 561.79 500.41 559.16 501.44 556.30 501.04 C 554.31 499.20 553.31 496.59 553.02 493.95 C 552.85 488.43 553.20 482.91 552.90 477.40 C 551.58 477.11 550.87 476.32 550.74 475.03 Z" />
<path fill="#ffffff" opacity="1.00" d=" M 759.00 475.00 C 759.75 475.00 761.25 475.00 762.00 475.00 C 762.02 481.87 761.96 488.75 762.03 495.63 C 763.18 496.70 764.30 497.82 765.38 498.99 C 769.75 499.75 773.84 497.61 777.00 494.75 C 777.00 488.16 776.99 481.58 777.00 475.00 C 777.50 475.00 778.50 475.00 779.00 475.00 C 779.03 481.65 778.96 488.30 779.01 494.96 C 778.98 496.44 779.87 497.72 780.28 499.11 C 782.87 499.35 785.09 498.02 787.29 496.85 C 787.10 498.61 785.74 499.76 784.68 501.05 C 781.34 501.53 777.72 500.35 776.75 496.82 C 773.85 500.59 768.10 502.23 763.79 500.30 C 760.01 498.75 759.79 494.39 759.04 490.94 C 758.91 485.62 759.04 480.31 759.00 475.00 Z" />
</g>
<g id="#6385e9ff">
<path fill="#6385e9" opacity="1.00" d=" M 488.08 116.78 C 494.28 118.51 500.19 121.15 506.35 123.02 C 506.71 178.53 506.46 234.07 506.48 289.59 C 501.09 289.06 495.85 287.61 490.54 286.59 C 483.05 284.71 475.34 283.78 467.93 281.60 C 467.79 281.23 467.53 280.49 467.39 280.12 C 472.93 276.41 478.53 272.79 483.92 268.88 C 485.64 267.87 485.69 265.84 485.76 264.08 C 486.18 250.03 485.77 235.97 486.56 221.94 C 486.80 198.29 487.05 174.64 487.35 150.99 C 487.14 139.57 488.18 128.19 488.08 116.78 Z" />
<path fill="#6385e9" opacity="1.00" d=" M 518.64 127.39 C 530.35 131.56 542.07 135.74 553.71 140.10 C 555.48 140.47 556.27 142.31 556.12 143.98 C 556.16 194.67 556.10 245.36 556.15 296.04 C 556.26 297.55 555.76 298.98 555.24 300.37 C 543.64 297.66 531.91 295.53 520.31 292.84 C 518.32 292.72 517.84 290.66 517.97 289.02 C 517.96 238.35 517.97 187.68 517.97 137.00 C 518.00 133.79 517.63 130.50 518.64 127.39 Z" />
<path fill="#6385e9" opacity="1.00" d=" M 566.76 144.55 C 578.25 148.71 589.74 152.89 601.26 156.97 C 601.33 207.63 601.37 258.30 601.24 308.95 C 600.93 309.17 600.30 309.61 599.98 309.83 C 592.57 308.72 585.41 306.42 578.04 305.12 C 574.20 304.28 570.29 303.60 566.59 302.24 C 566.78 249.67 566.45 197.11 566.76 144.55 Z" />
</g>
</svg>
