<?xml version="1.0" encoding="utf-8"?>
<!-- Generator: Adobe Illustrator 23.0.3, SVG Export Plug-In . SVG Version: 6.00 Build 0)  -->
<svg version="1.1" id="Capa_1" xmlns="http://www.w3.org/2000/svg" xmlns:xlink="http://www.w3.org/1999/xlink" x="0px" y="0px"
	 viewBox="0 0 343 303" style="enable-background:new 0 0 343 303;" xml:space="preserve">
<style type="text/css">
	.st0{fill:#FFFFFF;}
	.st1{fill:#BABABA;}
</style>
<g>
	<path class="st0" d="M37.5,20.4c7.3,1.9,13.9,5.6,21.1,7.8c45.8,18.3,91.8,36.1,137.7,54.3c3.6,1.5,7.5,2.5,10.8,4.6
		c0,6.3-0.3,12.5-0.1,18.8c-0.3,49.1-0.3,98.1-0.2,147.2c0.4,3.6-3.1,5.5-5.5,7.3c-5,3.2-9.9,6.6-14.8,9.9c-1.5,0.3-2.9,0.5-4.4,0.7
		c0.1-6.7,0.2-13.4,0.3-20.1c-3.4-1.4-7.1-1.8-10.6-2.7c-35.2-8.9-70.5-17.5-105.7-26.2c-10.6-2.8-21.3-4.9-31.8-8.2
		c0.4-21.9,0-43.9,1.1-65.9c0-15.3,0.3-30.7,0.4-46C37,80.7,36.4,59.3,37,38C37.8,32.2,37.3,26.2,37.5,20.4z"/>
</g>
<g>
	<path class="st1" d="M207.1,105.8c6.3,1.8,12.3,4.2,18.4,6.5c0,55.5-0.1,110.9,0,166.4c-9.8-1.5-19.4-4.1-29.2-5.9
		c-3.3-0.9-6.8-1-9.8-2.5c4.9-3.4,9.8-6.7,14.8-9.9c2.5-1.8,5.9-3.8,5.5-7.3C206.9,204,206.8,154.9,207.1,105.8z"/>
	<path class="st1" d="M237.7,116.4c12.3,4.3,24.5,9,36.8,13.2c0.8,3.1,0.6,6.3,0.6,9.4c0,49,0,98,0,147c0,1.2-0.4,2.3-1,3.3
		c-11.3-2.6-22.7-4.8-34.1-7.3c-1.6-0.3-3.3-1.2-3.1-3.1c-0.1-53,0-106,0-159C237,118.7,237.3,117.6,237.7,116.4z"/>
	<path class="st1" d="M285.8,133.6c11.5,4.1,23,8.3,34.5,12.4c0.1,49.7,0,99.4,0.1,149.1c-0.1,1.4,0.5,3.3-1.4,3.8
		c-3.8-0.7-7.6-1.4-11.4-2.4c-7.2-2.2-14.9-2.6-22-5.3C285.8,238.6,285.5,186.1,285.8,133.6z"/>
</g>
</svg>
