<?xml version="1.0" encoding="utf-8"?>
<!-- Generator: Adobe Illustrator 23.0.3, SVG Export Plug-In . SVG Version: 6.00 Build 0)  -->
<svg version="1.1" id="Capa_1" xmlns="http://www.w3.org/2000/svg" xmlns:xlink="http://www.w3.org/1999/xlink" x="0px" y="0px"
	 viewBox="0 0 800 800" style="enable-background:new 0 0 800 800;" xml:space="preserve">
<style type="text/css">
	.st0{fill:#8B001B;}
</style>
<g>
	<g>
		<path class="st0" d="M400,0C179.4,0,0,179.4,0,400s179.4,400,400,400s400-179.4,400-400S620.6,0,400,0z M400,718.6
			C224.3,718.6,81.4,575.7,81.4,400S224.3,81.4,400,81.4S718.6,224.3,718.6,400S575.7,718.6,400,718.6z"/>
	</g>
</g>
<rect x="162.9" y="357.1" transform="matrix(0.7246 0.6891 -0.6891 0.7246 382.9237 -158.2803)" class="st0" width="453.2" height="85.8"/>
<rect x="173.4" y="357.1" transform="matrix(-0.6891 0.7246 -0.7246 -0.6891 965.5144 385.8087)" class="st0" width="453.2" height="85.8"/>
</svg>
